<svg width="26" height="25" viewBox="0 0 26 25" fill="none" xmlns="http://www.w3.org/2000/svg">
<path d="M10.9697 25C10.527 25 10.1559 24.8503 9.85639 24.5508C9.55691 24.2513 9.40717 23.8802 9.40717 23.4375V14.0625L0.344669 2.5C-0.0459559 1.97917 -0.10455 1.43229 0.168888 0.859375C0.442325 0.286458 0.917586 0 1.59467 0H23.4697C24.1468 0 24.622 0.286458 24.8955 0.859375C25.1689 1.43229 25.1103 1.97917 24.7197 2.5L15.6572 14.0625V23.4375C15.6572 23.8802 15.5074 24.2513 15.2079 24.5508C14.9085 24.8503 14.5374 25 14.0947 25H10.9697ZM12.5322 12.9688L20.2665 3.125H4.79779L12.5322 12.9688Z" fill="black"/>
</svg>
